<svg width="94" height="96" viewBox="0 0 94 96" fill="none" xmlns="http://www.w3.org/2000/svg">
<rect width="94" height="96" rx="4" fill="url(#paint0_linear_101_524)"/>
<mask id="mask0_101_524" style="mask-type:alpha" maskUnits="userSpaceOnUse" x="0" y="0" width="94" height="96">
<rect width="94" height="96" rx="4" fill="url(#paint1_linear_101_524)"/>
</mask>
<g mask="url(#mask0_101_524)">
<path fill-rule="evenodd" clip-rule="evenodd" d="M25.1081 107.905L25.1111 107.919C25.4498 109.57 25.6177 110.388 25.1081 110.973C24.6007 111.555 23.7484 111.479 22.0511 111.328L22.0148 111.324C12.403 110.458 7.02321 108.69 2.81804 106.939C-4.17563 104.025 -9.7347 98.4307 -12.6308 91.3929C-14.3703 87.1611 -16.1366 81.7474 -16.9884 72.0749L-16.9913 72.0417C-17.1418 70.3404 -17.2178 69.482 -16.6387 68.962C-16.0649 68.4477 -15.24 68.6191 -13.5902 68.962C5.81277 73.0042 21.0913 88.3792 25.1081 107.905ZM43.6862 111.676C42.3502 111.739 41.6867 111.767 41.2205 111.388C40.7639 111.009 40.6649 110.307 40.4682 108.913L40.4673 108.906C36.4415 80.2316 13.9003 57.5481 -14.5944 53.4968C-15.9842 53.2983 -16.6746 53.199 -17.0601 52.7389C-17.4367 52.2787 -17.4098 51.602 -17.347 50.2576C-17.087 44.6273 -16.558 40.2061 -15.8766 36.606L-15.8678 36.5596C-15.6495 35.4083 -15.5387 34.8237 -15.0786 34.4675C-14.6127 34.1069 -14.0126 34.1517 -12.8042 34.2417L-12.8012 34.242C25.8434 37.1654 56.6962 68.2131 59.6013 107.093L59.6015 107.096C59.691 108.312 59.7355 108.916 59.3771 109.385C59.0232 109.848 58.4422 109.959 57.2981 110.179L57.2521 110.188C53.6656 110.873 49.2722 111.406 43.6862 111.667V111.676ZM102.366 104.62C100.851 106.29 76.0543 102.283 75.1308 102.004C74.2073 101.724 74.01 100.488 73.6155 98.0157C67.2226 58.1075 35.9035 26.5906 -3.75422 20.1572C-6.21097 19.7602 -7.43934 19.5617 -7.7173 18.6234C-7.99429 17.6972 -7.16718 16.9324 -5.51991 15.4091L-5.50264 15.3932C-3.07279 13.1645 0.95307 -5.20974 4.04642 -6.50001C9.90139 -8.94521 18.0338 -11.4265 36.7284 -11.4265C55.423 -11.4265 96.0987 -15.0176 101.954 -12.5724C108.947 -9.65802 104.778 23.4145 107.674 30.4524C110.104 36.3443 112.57 44.528 112.57 63.3407C112.57 82.1534 110.104 90.3372 107.674 96.2291C106.392 99.342 104.59 102.175 102.375 104.62H102.366ZM-32.491 58.4954C-32.491 38.0947 -29.7743 27.8899 -26.4568 19.8415C-22.0364 9.11325 -12.3528 -15.974 -1.683 -20.4223C6.30592 -23.7517 16.4467 -26.4857 36.7194 -26.4857C56.9921 -26.4857 99.6762 -29.8242 107.674 -26.4857C118.335 -22.0374 117.08 13.9585 121.5 24.6958C124.809 32.7442 127.534 42.949 127.534 63.3498C127.534 83.7505 124.818 93.9554 121.5 102.004C117.08 112.732 84.5812 116.413 73.9114 120.853C65.9135 124.191 55.7727 126.925 35.5 126.925C15.2273 126.925 5.0865 124.191 -2.91139 120.853C-13.5723 116.413 -22.0454 107.887 -26.4657 97.1585C-29.7743 89.1101 -32.5 78.9052 -32.5 58.5045L-32.491 58.4954Z" fill="white" fill-opacity="0.28"/>
</g>
<defs>
<linearGradient id="paint0_linear_101_524" x1="94" y1="0" x2="-1.97873" y2="93.9792" gradientUnits="userSpaceOnUse">
<stop stop-color="#07C7AE"/>
<stop offset="0.465" stop-color="#04B59D"/>
<stop offset="1" stop-color="#01A089"/>
</linearGradient>
<linearGradient id="paint1_linear_101_524" x1="94" y1="0" x2="-1.97873" y2="93.9792" gradientUnits="userSpaceOnUse">
<stop stop-color="#07C7AE"/>
<stop offset="0.465" stop-color="#04B59D"/>
<stop offset="1" stop-color="#01A089"/>
</linearGradient>
</defs>
</svg>
